HIERARCHY
ROOT Hips
{
	OFFSET	0.00	0.00	0.00
	CHANNELS 6 Xposition Yposition Zposition Zrotation Xrotation Yrotation
	JOINT Spine
	{
		OFFSET	 0.000000	 0.053172	 0.012782
		CHANNELS 3 Zrotation Xrotation Yrotation
		JOINT Chest
		{
			OFFSET	 0.000000	 0.115403	 0.003114
			CHANNELS 3 Zrotation Xrotation Yrotation
			JOINT UpperChest
			{
				OFFSET	-0.000000	 0.109921	-0.014956
				CHANNELS 3 Zrotation Xrotation Yrotation
				JOINT Neck
				{
					OFFSET	-0.000000	 0.135086	-0.039168
					CHANNELS 3 Zrotation Xrotation Yrotation
					JOINT Head
					{
						OFFSET	 0.000000	 0.074065	 0.009278
						CHANNELS 3 Zrotation Xrotation Yrotation
						JOINT LeftEye
						{
							OFFSET	 0.013099	 0.061527	 0.024023
							CHANNELS 3 Zrotation Xrotation Yrotation
							End Site
							{
								OFFSET	 0.013099	 0.061527	 0.024023
							}
						}
						JOINT RightEye
						{
							OFFSET	-0.013099	 0.061528	 0.024023
							CHANNELS 3 Zrotation Xrotation Yrotation
							End Site
							{
								OFFSET	-0.013099	 0.061528	 0.024023
							}
						}
					}
				}
				JOINT LeftShoulder
				{
					OFFSET	 0.022837	 0.107922	-0.030603
					CHANNELS 3 Zrotation Xrotation Yrotation
					JOINT LeftUpperArm
					{
						OFFSET	 0.086642	-0.012346	-0.000000
						CHANNELS 3 Zrotation Xrotation Yrotation
						JOINT LeftLowerArm
						{
							OFFSET	 0.224390	 0.000000	-0.000000
							CHANNELS 3 Zrotation Xrotation Yrotation
							JOINT LeftHand
							{
								OFFSET	 0.217424	 0.000002	 0.000381
								CHANNELS 3 Zrotation Xrotation Yrotation
								JOINT LeftIndexProximal
								{
									OFFSET	 0.066067	 0.007457	 0.019860
									CHANNELS 3 Zrotation Xrotation Yrotation
									JOINT LeftIndexIntermediate
									{
										OFFSET	 0.033559	-0.000000	-0.000653
										CHANNELS 3 Zrotation Xrotation Yrotation
										JOINT LeftIndexDistal
										{
											OFFSET	 0.020642	-0.000597	-0.000797
											CHANNELS 3 Zrotation Xrotation Yrotation
											End Site
											{
												OFFSET	 0.020642	-0.000597	-0.000797
											}
										}
									}
								}
								JOINT LeftLittleProximal
								{
									OFFSET	 0.061646	 0.007457	-0.029477
									CHANNELS 3 Zrotation Xrotation Yrotation
									JOINT LeftLittleIntermediate
									{
										OFFSET	 0.031724	 0.000000	 0.000000
										CHANNELS 3 Zrotation Xrotation Yrotation
										JOINT LeftLittleDistal
										{
											OFFSET	 0.018284	 0.000000	 0.000000
											CHANNELS 3 Zrotation Xrotation Yrotation
											End Site
											{
												OFFSET	 0.018284	 0.000000	 0.000000
											}
										}
									}
								}
								JOINT LeftMiddleProximal
								{
									OFFSET	 0.066967	 0.007457	 0.002068
									CHANNELS 3 Zrotation Xrotation Yrotation
									JOINT LeftMiddleIntermediate
									{
										OFFSET	 0.037388	 0.000000	 0.000000
										CHANNELS 3 Zrotation Xrotation Yrotation
										JOINT LeftMiddleDistal
										{
											OFFSET	 0.023065	 0.000000	 0.000000
											CHANNELS 3 Zrotation Xrotation Yrotation
											End Site
											{
												OFFSET	 0.023065	 0.000000	 0.000000
											}
										}
									}
								}
								JOINT LeftRingProximal
								{
									OFFSET	 0.066205	 0.007457	-0.013729
									CHANNELS 3 Zrotation Xrotation Yrotation
									JOINT LeftRingIntermediate
									{
										OFFSET	 0.034682	 0.000000	 0.000000
										CHANNELS 3 Zrotation Xrotation Yrotation
										JOINT LeftRingDistal
										{
											OFFSET	 0.020015	 0.000000	 0.000000
											CHANNELS 3 Zrotation Xrotation Yrotation
											End Site
											{
												OFFSET	 0.020015	 0.000000	 0.000000
											}
										}
									}
								}
								JOINT LeftThumbProximal
								{
									OFFSET	 0.003555	-0.010112	 0.016128
									CHANNELS 3 Zrotation Xrotation Yrotation
									JOINT LeftThumbIntermediate
									{
										OFFSET	 0.035690	-0.002084	 0.030575
										CHANNELS 3 Zrotation Xrotation Yrotation
										JOINT LeftThumbDistal
										{
											OFFSET	 0.022765	-0.000980	 0.017832
											CHANNELS 3 Zrotation Xrotation Yrotation
											End Site
											{
												OFFSET	 0.022765	-0.000980	 0.017832
											}
										}
									}
								}
							}
						}
					}
				}
				JOINT RightShoulder
				{
					OFFSET	-0.022837	 0.107922	-0.030603
					CHANNELS 3 Zrotation Xrotation Yrotation
					JOINT RightUpperArm
					{
						OFFSET	-0.086642	-0.012346	 0.000000
						CHANNELS 3 Zrotation Xrotation Yrotation
						JOINT RightLowerArm
						{
							OFFSET	-0.224390	 0.000000	 0.000000
							CHANNELS 3 Zrotation Xrotation Yrotation
							JOINT RightHand
							{
								OFFSET	-0.217424	 0.000002	 0.000381
								CHANNELS 3 Zrotation Xrotation Yrotation
								JOINT RightIndexProximal
								{
									OFFSET	-0.066067	 0.007457	 0.019860
									CHANNELS 3 Zrotation Xrotation Yrotation
									JOINT RightIndexIntermediate
									{
										OFFSET	-0.033559	-0.000000	-0.000653
										CHANNELS 3 Zrotation Xrotation Yrotation
										JOINT RightIndexDistal
										{
											OFFSET	-0.020642	-0.000597	-0.000797
											CHANNELS 3 Zrotation Xrotation Yrotation
											End Site
											{
												OFFSET	-0.020642	-0.000597	-0.000797
											}
										}
									}
								}
								JOINT RightLittleProximal
								{
									OFFSET	-0.061646	 0.007457	-0.029477
									CHANNELS 3 Zrotation Xrotation Yrotation
									JOINT RightLittleIntermediate
									{
										OFFSET	-0.031724	 0.000000	 0.000000
										CHANNELS 3 Zrotation Xrotation Yrotation
										JOINT RightLittleDistal
										{
											OFFSET	-0.018284	 0.000000	 0.000000
											CHANNELS 3 Zrotation Xrotation Yrotation
											End Site
											{
												OFFSET	-0.018284	 0.000000	 0.000000
											}
										}
									}
								}
								JOINT RightMiddleProximal
								{
									OFFSET	-0.066967	 0.007457	 0.002068
									CHANNELS 3 Zrotation Xrotation Yrotation
									JOINT RightMiddleIntermediate
									{
										OFFSET	-0.037388	 0.000000	 0.000000
										CHANNELS 3 Zrotation Xrotation Yrotation
										JOINT RightMiddleDistal
										{
											OFFSET	-0.023065	 0.000000	 0.000000
											CHANNELS 3 Zrotation Xrotation Yrotation
											End Site
											{
												OFFSET	-0.023065	 0.000000	 0.000000
											}
										}
									}
								}
								JOINT RightRingProximal
								{
									OFFSET	-0.066205	 0.007457	-0.013729
									CHANNELS 3 Zrotation Xrotation Yrotation
									JOINT RightRingIntermediate
									{
										OFFSET	-0.034682	 0.000000	 0.000000
										CHANNELS 3 Zrotation Xrotation Yrotation
										JOINT RightRingDistal
										{
											OFFSET	-0.020015	 0.000000	 0.000000
											CHANNELS 3 Zrotation Xrotation Yrotation
											End Site
											{
												OFFSET	-0.020015	 0.000000	 0.000000
											}
										}
									}
								}
								JOINT RightThumbProximal
								{
									OFFSET	-0.003555	-0.010112	 0.016128
									CHANNELS 3 Zrotation Xrotation Yrotation
									JOINT RightThumbIntermediate
									{
										OFFSET	-0.035690	-0.002084	 0.030575
										CHANNELS 3 Zrotation Xrotation Yrotation
										JOINT RightThumbDistal
										{
											OFFSET	-0.022765	-0.000980	 0.017832
											CHANNELS 3 Zrotation Xrotation Yrotation
											End Site
											{
												OFFSET	-0.022765	-0.000980	 0.017832
											}
										}
									}
								}
							}
						}
					}
				}
			}
		}
	}
	JOINT LeftUpperLeg
	{
		OFFSET	 0.078678	-0.040616	-0.003734
		CHANNELS 3 Zrotation Xrotation Yrotation
		JOINT LeftLowerLeg
		{
			OFFSET	 0.000000	-0.358659	-0.007506
			CHANNELS 3 Zrotation Xrotation Yrotation
			JOINT LeftFoot
			{
				OFFSET	 0.000000	-0.418700	-0.025144
				CHANNELS 3 Zrotation Xrotation Yrotation
				JOINT LeftToes
				{
					OFFSET	 0.000000	-0.063430	 0.111347
					CHANNELS 3 Zrotation Xrotation Yrotation
					End Site
					{
						OFFSET	 0.000000	-0.063430	 0.111347
					}
				}
			}
		}
	}
	JOINT RightUpperLeg
	{
		OFFSET	-0.078678	-0.040616	-0.003734
		CHANNELS 3 Zrotation Xrotation Yrotation
		JOINT RightLowerLeg
		{
			OFFSET	 0.000000	-0.358659	-0.007506
			CHANNELS 3 Zrotation Xrotation Yrotation
			JOINT RightFoot
			{
				OFFSET	 0.000000	-0.418700	-0.025144
				CHANNELS 3 Zrotation Xrotation Yrotation
				JOINT RightToes
				{
					OFFSET	 0.000000	-0.063430	 0.111347
					CHANNELS 3 Zrotation Xrotation Yrotation
					End Site
					{
						OFFSET	 0.000000	-0.063430	 0.111347
					}
				}
			}
		}
	}
}
MOTION
Frames:    7
Frame Time: 0.03333334
 0.107547	 0.887873	-0.031158	-4.716873	 1.687592	 18.623810	-0.446663	 2.099429	-0.578301	-0.387299	 12.345710	-0.172983	 0.000000	 0.000000	 0.000000	-0.516815	-13.075900	 0.038575	 2.805737	-6.957782	-4.345935	 0.000000	 0.000000	 0.000000	 0.000000	 0.000000	 0.000000	 16.717670	-16.454450	 15.893110	-84.735080	 14.946910	 6.418255	-21.278760	-34.188830	-132.720100	-4.320168	 26.458660	-11.161780	 0.000000	 0.000000	 0.000000	 0.000000	 0.000000	 0.000000	 0.000000	 0.000000	 0.000000	 0.000000	 0.000000	 0.000000	 0.000000	 0.000000	 0.000000	 0.000000	 0.000000	 0.000000	 0.000000	 0.000000	 0.000000	 0.000000	 0.000000	 0.000000	 0.000000	 0.000000	 0.000000	 0.000000	 0.000000	 0.000000	 0.000000	 0.000000	 0.000000	 0.000000	 0.000000	 0.000000	 0.000000	 0.000000	 0.000000	 0.000000	 0.000000	 0.000000	 0.000000	 0.000000	 0.000000	-3.885589	-17.124090	-11.986910	 68.873090	 15.309750	-3.332515	 42.570460	-61.806880	 151.500900	 6.425953	 6.673048	 7.308477	 0.000000	 0.000000	 0.000000	 0.000000	 0.000000	 0.000000	 0.000000	 0.000000	 0.000000	 0.000000	 0.000000	 0.000000	 0.000000	 0.000000	 0.000000	 0.000000	 0.000000	 0.000000	 0.000000	 0.000000	 0.000000	 0.000000	 0.000000	 0.000000	 0.000000	 0.000000	 0.000000	 0.000000	 0.000000	 0.000000	 0.000000	 0.000000	 0.000000	 0.000000	 0.000000	 0.000000	 0.000000	 0.000000	 0.000000	 0.000000	 0.000000	 0.000000	 0.000000	 0.000000	 0.000000	 4.134169	-9.844771	 0.622665	 0.581426	 48.829440	-0.786809	 6.678769	-28.964220	 12.297620	 0.000000	 0.000000	 0.000000	-5.752663	-7.160988	-0.599663	-3.081452	 39.882800	 4.921820	-3.095260	-5.184096	-19.793820	 0.000000	 0.000000	 0.000000
 0.115084	 0.883851	-0.030485	-4.947526	 1.354766	 20.769750	-0.365155	 2.388667	-1.099209	-0.267673	 12.634630	-0.173152	 0.000000	 0.000000	 0.000000	-0.757539	-12.912620	-0.018293	 2.689908	-6.774599	-4.699821	 0.000000	 0.000000	 0.000000	 0.000000	 0.000000	 0.000000	 17.149430	-16.556580	 16.704420	-82.570050	 17.669960	 4.277991	-21.349470	-36.029480	-135.330200	-4.553321	 28.673110	-11.998350	 0.000000	 0.000000	 0.000000	 0.000000	 0.000000	 0.000000	 0.000000	 0.000000	 0.000000	 0.000000	 0.000000	 0.000000	 0.000000	 0.000000	 0.000000	 0.000000	 0.000000	 0.000000	 0.000000	 0.000000	 0.000000	 0.000000	 0.000000	 0.000000	 0.000000	 0.000000	 0.000000	 0.000000	 0.000000	 0.000000	 0.000000	 0.000000	 0.000000	 0.000000	 0.000000	 0.000000	 0.000000	 0.000000	 0.000000	 0.000000	 0.000000	 0.000000	 0.000000	 0.000000	 0.000000	-3.795105	-17.286880	-12.497180	 66.128810	 16.383720	-2.107189	 36.774600	-58.656960	 148.702100	 7.127380	 7.992513	 8.601539	 0.000000	 0.000000	 0.000000	 0.000000	 0.000000	 0.000000	 0.000000	 0.000000	 0.000000	 0.000000	 0.000000	 0.000000	 0.000000	 0.000000	 0.000000	 0.000000	 0.000000	 0.000000	 0.000000	 0.000000	 0.000000	 0.000000	 0.000000	 0.000000	 0.000000	 0.000000	 0.000000	 0.000000	 0.000000	 0.000000	 0.000000	 0.000000	 0.000000	 0.000000	 0.000000	 0.000000	 0.000000	 0.000000	 0.000000	 0.000000	 0.000000	 0.000000	 0.000000	 0.000000	 0.000000	 3.012634	-8.884194	 0.403336	 2.435785	 48.039990	-3.336756	 8.008832	-26.845010	 15.548230	 0.000000	 0.000000	 0.000000	-3.476673	-8.878894	-0.465290	-6.398432	 43.960610	 9.377928	-2.763152	-3.921529	-20.604580	 0.000000	 0.000000	 0.000000
 0.120577	 0.882565	-0.027510	-5.358613	 1.100445	 22.993220	-0.257148	 2.600426	-1.944243	-0.095894	 12.845740	-0.165332	 0.000000	 0.000000	 0.000000	-0.793792	-12.883760	-0.032742	 2.519454	-6.116228	-4.995979	 0.000000	 0.000000	 0.000000	 0.000000	 0.000000	 0.000000	 17.309020	-16.633020	 17.029080	-77.614430	 20.800450	 0.489161	-21.912440	-38.971890	-137.995500	-4.427559	 30.171120	-12.604830	 0.000000	 0.000000	 0.000000	 0.000000	 0.000000	 0.000000	 0.000000	 0.000000	 0.000000	 0.000000	 0.000000	 0.000000	 0.000000	 0.000000	 0.000000	 0.000000	 0.000000	 0.000000	 0.000000	 0.000000	 0.000000	 0.000000	 0.000000	 0.000000	 0.000000	 0.000000	 0.000000	 0.000000	 0.000000	 0.000000	 0.000000	 0.000000	 0.000000	 0.000000	 0.000000	 0.000000	 0.000000	 0.000000	 0.000000	 0.000000	 0.000000	 0.000000	 0.000000	 0.000000	 0.000000	-3.709280	-17.372540	-12.786820	 62.082760	 17.650810	-0.119135	 31.113060	-54.271020	 145.981800	 7.719758	 9.572673	 10.086370	 0.000000	 0.000000	 0.000000	 0.000000	 0.000000	 0.000000	 0.000000	 0.000000	 0.000000	 0.000000	 0.000000	 0.000000	 0.000000	 0.000000	 0.000000	 0.000000	 0.000000	 0.000000	 0.000000	 0.000000	 0.000000	 0.000000	 0.000000	 0.000000	 0.000000	 0.000000	 0.000000	 0.000000	 0.000000	 0.000000	 0.000000	 0.000000	 0.000000	 0.000000	 0.000000	 0.000000	 0.000000	 0.000000	 0.000000	 0.000000	 0.000000	 0.000000	 0.000000	 0.000000	 0.000000	 2.233885	-7.843236	 0.258662	 4.503319	 46.173600	-6.357432	 8.827328	-24.121840	 18.499570	 0.000000	 0.000000	 0.000000	-0.235285	-11.205990	-0.040892	-9.657067	 47.638390	 13.215550	-2.569326	-3.309700	-20.861990	 0.000000	 0.000000	 0.000000
 0.124373	 0.884065	-0.022836	-5.941766	 0.908348	 25.017990	-0.147246	 2.734615	-2.831758	 0.089512	 12.975340	-0.149614	 0.000000	 0.000000	 0.000000	-0.652194	-12.987840	-0.010767	 2.449037	-5.187359	-5.553730	 0.000000	 0.000000	 0.000000	 0.000000	 0.000000	 0.000000	 17.081790	-16.690170	 16.901490	-70.346680	 23.267770	-4.656382	-22.597720	-41.784370	-140.450600	-5.401206	 30.113730	-12.226740	 0.000000	 0.000000	 0.000000	 0.000000	 0.000000	 0.000000	 0.000000	 0.000000	 0.000000	 0.000000	 0.000000	 0.000000	 0.000000	 0.000000	 0.000000	 0.000000	 0.000000	 0.000000	 0.000000	 0.000000	 0.000000	 0.000000	 0.000000	 0.000000	 0.000000	 0.000000	 0.000000	 0.000000	 0.000000	 0.000000	 0.000000	 0.000000	 0.000000	 0.000000	 0.000000	 0.000000	 0.000000	 0.000000	 0.000000	 0.000000	 0.000000	 0.000000	 0.000000	 0.000000	 0.000000	-3.776046	-17.380630	-12.927590	 57.578630	 18.991380	 2.606604	 26.472190	-49.198190	 144.110100	 8.055165	 11.970420	 11.568210	 0.000000	 0.000000	 0.000000	 0.000000	 0.000000	 0.000000	 0.000000	 0.000000	 0.000000	 0.000000	 0.000000	 0.000000	 0.000000	 0.000000	 0.000000	 0.000000	 0.000000	 0.000000	 0.000000	 0.000000	 0.000000	 0.000000	 0.000000	 0.000000	 0.000000	 0.000000	 0.000000	 0.000000	 0.000000	 0.000000	 0.000000	 0.000000	 0.000000	 0.000000	 0.000000	 0.000000	 0.000000	 0.000000	 0.000000	 0.000000	 0.000000	 0.000000	 0.000000	 0.000000	 0.000000	 1.752371	-6.705104	 0.168239	 6.275954	 43.209950	-9.330823	 8.678952	-20.791630	 20.340390	 0.000000	 0.000000	 0.000000	 3.565993	-13.891220	 0.784639	-11.811090	 50.501160	 15.422050	-2.619794	-3.344773	-21.136110	 0.000000	 0.000000	 0.000000
 0.126889	 0.888045	-0.016912	-6.651035	 0.829719	 26.627740	-0.070579	 2.766674	-3.493310	 0.246789	 12.989710	-0.139968	 0.000000	 0.000000	 0.000000	-0.451555	-13.159220	 0.031305	 2.493160	-4.262614	-6.455418	 0.000000	 0.000000	 0.000000	 0.000000	 0.000000	 0.000000	 16.955360	-16.673170	 16.569370	-62.472000	 24.499910	-10.305870	-23.010450	-43.711360	-142.527200	-7.900783	 27.770990	-10.574790	 0.000000	 0.000000	 0.000000	 0.000000	 0.000000	 0.000000	 0.000000	 0.000000	 0.000000	 0.000000	 0.000000	 0.000000	 0.000000	 0.000000	 0.000000	 0.000000	 0.000000	 0.000000	 0.000000	 0.000000	 0.000000	 0.000000	 0.000000	 0.000000	 0.000000	 0.000000	 0.000000	 0.000000	 0.000000	 0.000000	 0.000000	 0.000000	 0.000000	 0.000000	 0.000000	 0.000000	 0.000000	 0.000000	 0.000000	 0.000000	 0.000000	 0.000000	 0.000000	 0.000000	 0.000000	-3.641785	-17.316950	-12.838540	 52.890700	 20.116940	 5.781694	 23.205900	-44.317950	 143.036000	 8.337858	 13.572180	 12.966360	 0.000000	 0.000000	 0.000000	 0.000000	 0.000000	 0.000000	 0.000000	 0.000000	 0.000000	 0.000000	 0.000000	 0.000000	 0.000000	 0.000000	 0.000000	 0.000000	 0.000000	 0.000000	 0.000000	 0.000000	 0.000000	 0.000000	 0.000000	 0.000000	 0.000000	 0.000000	 0.000000	 0.000000	 0.000000	 0.000000	 0.000000	 0.000000	 0.000000	 0.000000	 0.000000	 0.000000	 0.000000	 0.000000	 0.000000	 0.000000	 0.000000	 0.000000	 0.000000	 0.000000	 0.000000	 1.612275	-5.730650	 0.127452	 7.351487	 39.854670	-11.670020	 7.613214	-16.756000	 21.104740	 0.000000	 0.000000	 0.000000	 7.398859	-16.623320	 1.978433	-12.097900	 52.108940	 15.440280	-2.807740	-3.622812	-21.707780	 0.000000	 0.000000	 0.000000
 0.128585	 0.894454	-0.009863	-7.551543	 0.904091	 27.836940	 0.088052	 2.650311	-3.607562	 0.446693	 12.866570	-0.136138	 0.000000	 0.000000	 0.000000	-0.338375	-13.274160	 0.058697	 2.478064	-3.252906	-8.141939	 0.000000	 0.000000	 0.000000	 0.000000	 0.000000	 0.000000	 17.054690	-16.575830	 16.230440	-55.900630	 25.013500	-16.043110	-22.613150	-43.667580	-143.524400	-10.321720	 22.938670	-8.954464	 0.000000	 0.000000	 0.000000	 0.000000	 0.000000	 0.000000	 0.000000	 0.000000	 0.000000	 0.000000	 0.000000	 0.000000	 0.000000	 0.000000	 0.000000	 0.000000	 0.000000	 0.000000	 0.000000	 0.000000	 0.000000	 0.000000	 0.000000	 0.000000	 0.000000	 0.000000	 0.000000	 0.000000	 0.000000	 0.000000	 0.000000	 0.000000	 0.000000	 0.000000	 0.000000	 0.000000	 0.000000	 0.000000	 0.000000	 0.000000	 0.000000	 0.000000	 0.000000	 0.000000	 0.000000	-3.324247	-17.197340	-12.607020	 48.785760	 21.105460	 9.185000	 20.847640	-39.540300	 142.154000	 8.682705	 13.921940	 13.806660	 0.000000	 0.000000	 0.000000	 0.000000	 0.000000	 0.000000	 0.000000	 0.000000	 0.000000	 0.000000	 0.000000	 0.000000	 0.000000	 0.000000	 0.000000	 0.000000	 0.000000	 0.000000	 0.000000	 0.000000	 0.000000	 0.000000	 0.000000	 0.000000	 0.000000	 0.000000	 0.000000	 0.000000	 0.000000	 0.000000	 0.000000	 0.000000	 0.000000	 0.000000	 0.000000	 0.000000	 0.000000	 0.000000	 0.000000	 0.000000	 0.000000	 0.000000	 0.000000	 0.000000	 0.000000	 1.921061	-5.094486	 0.130589	 7.817938	 36.675610	-13.305100	 6.114302	-12.560680	 21.182670	 0.000000	 0.000000	 0.000000	 10.968840	-19.223960	 3.432461	-10.248090	 52.254600	 13.086970	-2.958292	-3.878007	-22.043640	 0.000000	 0.000000	 0.000000
 0.129925	 0.902920	-0.002071	-8.448663	 1.062282	 28.555680	 0.287608	 2.443296	-3.257213	 0.607105	 12.698200	-0.140426	 0.000000	 0.000000	 0.000000	-0.298621	-13.267530	 0.075915	 2.277491	-1.908201	-10.124500	 0.000000	 0.000000	 0.000000	 0.000000	 0.000000	 0.000000	 17.401800	-16.445410	 16.109700	-52.039100	 25.636060	-21.365390	-21.360370	-41.376110	-143.346400	-12.304450	 16.843790	-7.805719	 0.000000	 0.000000	 0.000000	 0.000000	 0.000000	 0.000000	 0.000000	 0.000000	 0.000000	 0.000000	 0.000000	 0.000000	 0.000000	 0.000000	 0.000000	 0.000000	 0.000000	 0.000000	 0.000000	 0.000000	 0.000000	 0.000000	 0.000000	 0.000000	 0.000000	 0.000000	 0.000000	 0.000000	 0.000000	 0.000000	 0.000000	 0.000000	 0.000000	 0.000000	 0.000000	 0.000000	 0.000000	 0.000000	 0.000000	 0.000000	 0.000000	 0.000000	 0.000000	 0.000000	 0.000000	-2.836799	-17.074810	-12.426520	 45.662380	 22.212030	 12.771030	 19.193820	-34.756070	 140.950000	 8.956122	 13.315230	 14.174100	 0.000000	 0.000000	 0.000000	 0.000000	 0.000000	 0.000000	 0.000000	 0.000000	 0.000000	 0.000000	 0.000000	 0.000000	 0.000000	 0.000000	 0.000000	 0.000000	 0.000000	 0.000000	 0.000000	 0.000000	 0.000000	 0.000000	 0.000000	 0.000000	 0.000000	 0.000000	 0.000000	 0.000000	 0.000000	 0.000000	 0.000000	 0.000000	 0.000000	 0.000000	 0.000000	 0.000000	 0.000000	 0.000000	 0.000000	 0.000000	 0.000000	 0.000000	 0.000000	 0.000000	 0.000000	 2.467152	-4.851208	 0.157291	 7.894516	 34.179210	-14.234440	 4.823568	-9.329096	 20.849350	 0.000000	 0.000000	 0.000000	 13.951900	-21.333480	 4.888021	-7.135837	 50.944730	 9.314947	-3.031259	-4.053224	-22.060670	 0.000000	 0.000000	 0.000000
